<svg width="105" height="23" viewBox="0 0 105 23" fill="none" xmlns="http://www.w3.org/2000/svg">
<path d="M0 8.9342C0 7.73455 0.221409 6.6232 0.662077 5.59369C1.10274 4.56634 1.70463 3.67467 2.46774 2.91869C3.2287 2.16272 4.12293 1.57043 5.14829 1.14183C6.17365 0.713224 7.26349 0.5 8.41783 0.5C9.05841 0.5 9.66674 0.560306 10.245 0.683071C10.8211 0.803683 11.3778 1.00183 11.9109 1.27105C12.444 1.54243 12.9685 1.88488 13.4823 2.29841C13.996 2.71193 14.5076 3.21161 15.0214 3.79744L13.291 5.44508C11.9668 3.68975 10.3568 2.81101 8.46297 2.81101C7.60743 2.81101 6.81423 2.96823 6.08121 3.28268C5.3482 3.59713 4.70977 4.02789 4.16807 4.57711C3.62637 5.12632 3.2029 5.77245 2.89766 6.51551C2.59027 7.25856 2.43765 8.06407 2.43765 8.9342C2.43765 9.8194 2.60531 10.6335 2.94065 11.3744C3.27599 12.1175 3.71666 12.755 4.2648 13.2913C4.81295 13.8254 5.43634 14.2433 6.13495 14.5448C6.83357 14.8442 7.54509 14.9949 8.27166 14.9949C8.94018 14.9949 9.56141 14.8851 10.1311 14.6633C10.7007 14.4414 11.1951 14.1463 11.6164 13.7759C12.0356 13.4054 12.3752 12.9661 12.631 12.4599C12.8868 11.9538 13.0438 11.4218 13.1018 10.864V10.8425H9.0842V8.54867H15.7501V9.08281C15.7501 10.3105 15.5717 11.4261 15.217 12.4341C14.8602 13.4399 14.3593 14.2993 13.7101 15.0143C13.061 15.7272 12.2721 16.2807 11.3391 16.6727C10.4062 17.0647 9.36365 17.2607 8.20932 17.2607C7.07003 17.2607 6.00168 17.0432 5.00427 16.6081C4.00685 16.1731 3.13841 15.5765 2.3968 14.8205C1.65519 14.0645 1.07265 13.1793 0.64488 12.167C0.21496 11.1526 0 10.0757 0 8.9342Z" fill="white"/>
<path d="M22.6052 6.49402C23.3597 6.49402 24.0368 6.61894 24.6344 6.86878C25.232 7.11861 25.735 7.4783 26.1413 7.94997C26.5476 8.42165 26.8571 8.9881 27.0699 9.65146C27.2827 10.3148 27.3902 11.0536 27.3902 11.8677V12.4234H20.1052C20.1762 13.2655 20.4406 13.9332 20.8963 14.4242C21.352 14.9174 21.9711 15.163 22.7557 15.163C23.3253 15.163 23.8133 15.0338 24.2196 14.7775C24.6258 14.5212 25.0063 14.0926 25.3632 13.4938L27.2849 14.6719C26.7862 15.5291 26.1585 16.1731 25.404 16.6082C24.6495 17.0432 23.7381 17.2608 22.6697 17.2608C21.9152 17.2608 21.2273 17.1315 20.6082 16.8752C19.9892 16.6189 19.4625 16.2549 19.0283 15.7833C18.5941 15.3116 18.2544 14.7451 18.0137 14.0818C17.7708 13.4184 17.6504 12.6861 17.6504 11.8871C17.6504 11.088 17.7686 10.3557 18.0029 9.69238C18.2372 9.02902 18.5726 8.46257 19.0068 7.9909C19.441 7.51922 19.9655 7.15308 20.5781 6.88816C21.1886 6.6254 21.8658 6.49402 22.6052 6.49402ZM20.2557 10.4957H24.9784C24.8795 9.86684 24.6194 9.39301 24.1981 9.07209C23.7789 8.75118 23.2544 8.58965 22.6267 8.58965C21.999 8.58965 21.4874 8.76195 21.0876 9.1044C20.6899 9.44685 20.4126 9.91207 20.2557 10.4957Z" fill="white"/>
<path d="M28.9292 11.8031C28.9292 11.0751 29.0582 10.3902 29.314 9.74838C29.5698 9.10656 29.9374 8.54657 30.4146 8.06843C30.8918 7.59029 31.4614 7.20907 32.1235 6.92262C32.7856 6.63832 33.5229 6.49402 34.3354 6.49402C35.148 6.49402 35.8853 6.63401 36.5474 6.91185C37.2095 7.18969 37.7791 7.57306 38.2563 8.05766C38.7335 8.54227 39.1033 9.11302 39.3677 9.76992C39.6321 10.4268 39.7632 11.1333 39.7632 11.8892C39.7632 12.6452 39.6321 13.3517 39.3677 14.0086C39.1033 14.6655 38.7335 15.2319 38.2563 15.71C37.7791 16.1882 37.2052 16.5673 36.5366 16.8451C35.8681 17.1229 35.1201 17.2629 34.2925 17.2629C33.495 17.2629 32.7641 17.1229 32.102 16.8451C31.4399 16.5673 30.8724 16.186 30.4038 15.6993C29.9331 15.2147 29.5698 14.6353 29.314 13.9655C29.0582 13.2935 28.9292 12.5741 28.9292 11.8031ZM31.3217 11.8462C31.3217 12.8606 31.5926 13.6661 32.1343 14.2649C32.676 14.8636 33.409 15.163 34.3354 15.163C35.2469 15.163 35.9799 14.8636 36.5366 14.2649C37.0934 13.6661 37.3707 12.8735 37.3707 11.8892C37.3707 10.92 37.0955 10.1296 36.5474 9.52439C35.9992 8.91702 35.2619 8.61549 34.3354 8.61549C33.8948 8.61549 33.4885 8.69303 33.1166 8.85026C32.7469 9.00748 32.4266 9.23147 32.1558 9.52439C31.8849 9.8173 31.6785 10.1598 31.5367 10.5517C31.3948 10.9437 31.3217 11.3745 31.3217 11.8462Z" fill="white"/>
<path d="M42.4975 6.77181V3.04578H44.847V6.76966H46.6634V8.97513H44.847V16.9592H42.4975V8.97728H40.853V6.77181H42.4975Z" fill="white"/>
<path d="M47.5405 11.8461C47.5405 11.0901 47.6652 10.388 47.9146 9.73756C48.1639 9.08927 48.5121 8.52498 48.9614 8.04684C49.4107 7.5687 49.9373 7.19394 50.5414 6.92257C51.1476 6.65119 51.8053 6.5155 52.5168 6.5155C53.1574 6.5155 53.7486 6.62319 54.2903 6.83642C54.832 7.04964 55.3586 7.40717 55.8702 7.90685H55.8917V6.7718H58.2412V16.9613H55.8917V15.8263H55.8702C55.3586 16.326 54.8341 16.69 54.301 16.9183C53.7679 17.1466 53.194 17.2607 52.5813 17.2607C51.8548 17.2607 51.1819 17.1207 50.5629 16.8429C49.9438 16.565 49.4085 16.1838 48.9614 15.6971C48.5121 15.2125 48.1639 14.6417 47.9146 13.9848C47.6631 13.3301 47.5405 12.615 47.5405 11.8461ZM49.933 11.8461C49.933 12.3178 49.9997 12.755 50.1351 13.1621C50.2705 13.5691 50.4661 13.9224 50.7219 14.2217C50.9777 14.5211 51.2959 14.7537 51.6721 14.9174C52.0504 15.0811 52.4739 15.1629 52.9425 15.1629C53.4132 15.1629 53.8367 15.0811 54.2129 14.9174C54.5912 14.7537 54.9137 14.5254 55.1845 14.2325C55.4553 13.9396 55.666 13.595 55.8143 13.1944C55.9648 12.7959 56.0379 12.3587 56.0379 11.8892C56.0379 11.4326 55.9627 11.004 55.8143 10.6055C55.6639 10.2071 55.4553 9.86033 55.1845 9.56741C54.9137 9.2745 54.5891 9.04189 54.2129 8.87174C53.8345 8.69944 53.4197 8.61544 52.964 8.61544C52.5082 8.61544 52.0912 8.70159 51.7129 8.87174C51.3346 9.04404 51.0143 9.27234 50.752 9.55664C50.4876 9.84309 50.2856 10.1812 50.1437 10.5732C50.004 10.9652 49.933 11.3895 49.933 11.8461Z" fill="white"/>
<path d="M65.2081 6.5155C65.8487 6.5155 66.4399 6.62319 66.9816 6.83642C67.5232 7.04964 68.0499 7.40717 68.5615 7.90685H68.583V6.7718H70.9325V16.9398C70.9325 18.7102 70.5155 20.0822 69.6836 21.06C68.8495 22.0378 67.5641 22.5267 65.8272 22.5267C64.359 22.5267 63.1918 22.1886 62.3234 21.5101C61.4549 20.8317 60.9627 19.8366 60.8488 18.5228L63.1983 18.3096C63.3552 19.0656 63.6368 19.604 64.0431 19.9249C64.4493 20.2459 65.0512 20.4074 65.8487 20.4074C67.6716 20.4074 68.583 19.3499 68.583 17.2392V15.8263H68.5615C67.6501 16.7826 66.5538 17.2607 65.2705 17.2607C64.6019 17.2607 63.9807 17.1207 63.4111 16.8429C62.8414 16.565 62.3492 16.1838 61.9365 15.6971C61.5237 15.2125 61.1991 14.6417 60.9648 13.9848C60.7305 13.3279 60.6123 12.615 60.6123 11.844C60.6123 11.088 60.7305 10.3858 60.9648 9.7354C61.1991 9.08712 61.5237 8.52283 61.9365 8.04469C62.3492 7.56655 62.8328 7.19179 63.3896 6.92041C63.9485 6.65119 64.5547 6.5155 65.2081 6.5155ZM65.8294 15.1629C66.27 15.1629 66.6699 15.0811 67.0267 14.9174C67.3835 14.7537 67.6888 14.5254 67.9446 14.2325C68.2004 13.9396 68.396 13.595 68.5314 13.1944C68.6668 12.7959 68.7335 12.3587 68.7335 11.8892C68.7335 11.4326 68.6647 11.004 68.5314 10.6055C68.396 10.2071 68.2004 9.86032 67.9446 9.56741C67.6888 9.2745 67.3814 9.04189 67.0267 8.87174C66.6699 8.69944 66.2786 8.61544 65.8509 8.61544C65.4231 8.61544 65.0362 8.70159 64.6858 8.87174C64.3375 9.04404 64.0366 9.27234 63.7873 9.55664C63.5379 9.84309 63.3466 10.1812 63.2112 10.5732C63.0757 10.9652 63.0091 11.3895 63.0091 11.8461C63.0091 12.3178 63.0736 12.755 63.2004 13.1621C63.3294 13.5691 63.5143 13.9224 63.755 14.2217C63.9979 14.5211 64.2924 14.7537 64.6428 14.9174C64.991 15.0811 65.3865 15.1629 65.8294 15.1629Z" fill="white"/>
<path d="M77.8993 6.5155C78.5399 6.5155 79.131 6.62319 79.6727 6.83642C80.2144 7.04964 80.7411 7.40717 81.2527 7.90685H81.2742V6.7718H83.6237V16.9398C83.6237 18.7102 83.2067 20.0822 82.3748 21.06C81.5407 22.0378 80.2553 22.5267 78.5184 22.5267C77.0502 22.5267 75.883 22.1886 75.0146 21.5101C74.1461 20.8317 73.6539 19.8366 73.5399 18.5228L75.8894 18.3096C76.0464 19.0656 76.328 19.604 76.7342 19.9249C77.1405 20.2459 77.7424 20.4074 78.5399 20.4074C80.3627 20.4074 81.2742 19.3499 81.2742 17.2392V15.8263H81.2527C80.3413 16.7826 79.245 17.2607 77.9616 17.2607C77.2931 17.2607 76.6719 17.1207 76.1022 16.8429C75.5326 16.565 75.0403 16.1838 74.6276 15.6971C74.2149 15.2125 73.8903 14.6417 73.656 13.9848C73.4217 13.3279 73.3035 12.615 73.3035 11.844C73.3035 11.088 73.4217 10.3858 73.656 9.7354C73.8903 9.08712 74.2149 8.52283 74.6276 8.04469C75.0403 7.56655 75.524 7.19179 76.0807 6.92041C76.6396 6.65119 77.2458 6.5155 77.8993 6.5155ZM78.5205 15.1629C78.9612 15.1629 79.361 15.0811 79.7179 14.9174C80.0747 14.7537 80.3799 14.5254 80.6357 14.2325C80.8916 13.9396 81.0872 13.595 81.2226 13.1944C81.358 12.7959 81.4246 12.3587 81.4246 11.8892C81.4246 11.4326 81.3559 11.004 81.2226 10.6055C81.0872 10.2071 80.8916 9.86032 80.6357 9.56741C80.3799 9.2745 80.0726 9.04189 79.7179 8.87174C79.361 8.69944 78.9698 8.61544 78.542 8.61544C78.1143 8.61544 77.7273 8.70159 77.377 8.87174C77.0287 9.04404 76.7278 9.27234 76.4784 9.55664C76.2291 9.84309 76.0378 10.1812 75.9023 10.5732C75.7669 10.9652 75.7003 11.3895 75.7003 11.8461C75.7003 12.3178 75.7648 12.755 75.8916 13.1621C76.0206 13.5691 76.2054 13.9224 76.4462 14.2217C76.6891 14.5211 76.9836 14.7537 77.334 14.9174C77.6822 15.0811 78.0777 15.1629 78.5205 15.1629Z" fill="white"/>
<path d="M90.8269 6.49402C91.5814 6.49402 92.2585 6.61894 92.8561 6.86878C93.4537 7.11861 93.9567 7.4783 94.363 7.94997C94.7693 8.42165 95.0788 8.9881 95.2916 9.65146C95.5044 10.3148 95.6119 11.0536 95.6119 11.8677V12.4234H88.3269C88.3978 13.2655 88.6623 13.9332 89.118 14.4242C89.5737 14.9174 90.1928 15.163 90.9774 15.163C91.547 15.163 92.035 15.0338 92.4412 14.7775C92.8475 14.5212 93.228 14.0926 93.5848 13.4938L95.5066 14.6719C95.0079 15.5291 94.3802 16.1731 93.6257 16.6082C92.8712 17.0432 91.9597 17.2608 90.8914 17.2608C90.1369 17.2608 89.449 17.1315 88.8299 16.8752C88.2108 16.6189 87.6842 16.2549 87.25 15.7833C86.8158 15.3116 86.4761 14.7451 86.2354 14.0818C85.9924 13.4184 85.8721 12.6861 85.8721 11.8871C85.8721 11.088 85.9903 10.3557 86.2246 9.69238C86.4589 9.02902 86.7942 8.46257 87.2285 7.9909C87.6627 7.51922 88.1872 7.15308 88.7998 6.88816C89.4082 6.6254 90.0853 6.49402 90.8269 6.49402ZM88.4774 10.4957H93.2001C93.1012 9.86684 92.8411 9.39301 92.4198 9.07209C92.0006 8.75118 91.4761 8.58965 90.8484 8.58965C90.2207 8.58965 89.7091 8.76195 89.3093 9.1044C88.9095 9.44685 88.6322 9.91207 88.4774 10.4957Z" fill="white"/>
<path d="M97.8562 6.77186H100.206V7.69152H100.249C100.633 7.278 100.992 6.97431 101.328 6.78263C101.663 6.59094 102.078 6.49402 102.579 6.49402C103.192 6.49402 103.832 6.70078 104.501 7.11431L103.432 9.25516C102.992 8.94071 102.555 8.78349 102.13 8.78349C100.848 8.78349 100.208 9.74623 100.208 11.6739V16.9614H97.8584V6.77186H97.8562Z" fill="white"/>
</svg>
