<svg width="19" height="29" viewBox="0 0 19 29" fill="none" xmlns="http://www.w3.org/2000/svg">
<path d="M18.7302 10.6889C17.693 9.48062 16.4428 8.48083 15.0244 7.73455C14.0488 5.5336 11.8798 3.99839 9.36269 3.99839C6.8456 3.99839 4.68369 5.5336 3.71047 7.73455C2.29209 8.48083 1.04183 9.48299 0.0046812 10.6889C-0.161073 5.2422 4.09644 0.769226 9.36506 0.769226C14.6384 0.769226 18.8888 5.2422 18.7302 10.6889Z" fill="white"/>
<path d="M14.0297 14.9368C12.8954 13.6172 11.2237 12.7714 9.36485 12.7714C8.69473 12.7714 8.04356 12.8851 7.43737 13.0912V9.74597C8.06724 9.61093 8.70894 9.53986 9.36485 9.53986C11.8109 9.53986 14.0368 10.5065 15.7038 12.082C15.7961 12.1767 15.8932 12.2691 15.9856 12.3592C16.1916 12.5558 16.381 12.7738 16.5562 12.9988C16.6415 13.1078 16.7243 13.2168 16.8096 13.3329C16.8854 13.4253 16.954 13.5248 17.0227 13.6243C17.0582 13.674 17.0843 13.7167 17.1127 13.7593C17.1198 13.7664 17.1269 13.7806 17.134 13.7878C17.1814 13.8659 17.2382 13.9512 17.2855 14.0365C17.3613 14.1502 17.4229 14.264 17.4868 14.3777C17.4939 14.3848 17.501 14.3919 17.501 14.399C17.5697 14.5269 17.6384 14.6549 17.7023 14.7757C17.6881 14.8041 17.6739 14.8397 17.6478 14.8823C17.6407 14.9036 17.6265 14.9178 17.6123 14.9463C17.591 14.9747 17.5697 15.0173 17.5507 15.06C17.4892 15.1737 17.4063 15.3088 17.3163 15.4722C17.295 15.5078 17.3069 15.5694 17.3069 15.5694C17.3069 15.5694 17.2477 15.5931 17.2405 15.6002C16.999 16.0337 16.6675 16.6023 16.2792 17.268C14.4156 20.4546 11.2663 25.7923 9.94499 27.9056C9.67268 28.3391 9.05703 28.3391 8.78472 27.9056C7.46342 25.7946 4.31882 20.4617 2.46001 17.2728C2.07404 16.6047 1.74016 16.029 1.49153 15.5978C1.48443 15.5907 1.47732 15.5765 1.47732 15.5694C1.45601 15.5338 1.4347 15.5054 1.41576 15.4699C1.39444 15.4272 1.37313 15.3917 1.34709 15.3561C1.28552 15.2424 1.22869 15.1429 1.18133 15.0576C1.16002 15.015 1.13871 14.9723 1.11977 14.9439C1.10556 14.9155 1.09845 14.9013 1.08425 14.8799C1.06294 14.8373 1.04162 14.8018 1.02979 14.7733C1.09845 14.6454 1.16002 14.5175 1.23106 14.3966C1.29973 14.2758 1.3755 14.1479 1.45127 14.027C1.45838 14.0128 1.46548 13.9915 1.47969 13.9773C1.54126 13.8778 1.60992 13.7712 1.68096 13.6717C1.75674 13.5579 1.83961 13.4442 1.92249 13.3305C1.92249 13.3234 1.92959 13.3163 1.92959 13.3163C2.00537 13.2239 2.07404 13.1315 2.14271 13.0462C2.15691 13.0178 2.17823 12.9965 2.19717 12.9751C2.28005 12.8685 2.37003 12.769 2.46001 12.6695C2.54999 12.5629 2.64707 12.4563 2.74416 12.3568L3.04252 12.0583L9.36722 22.71C9.58507 22.4636 12.5023 17.5287 14.0297 14.9368Z" fill="white"/>
</svg>
