<svg width="28" height="40" viewBox="0 0 28 40" fill="none" xmlns="http://www.w3.org/2000/svg">
<path d="M27.2821 14.4488C25.7714 12.6889 23.9503 11.2326 21.8843 10.1456C20.4633 6.93972 17.3039 4.70355 13.6376 4.70355C9.97119 4.70355 6.82219 6.93972 5.40462 10.1456C3.33862 11.2326 1.51751 12.6923 0.00681857 14.4488C-0.234617 6.51526 5.96682 0 13.641 0C21.3221 0 27.5132 6.51526 27.2821 14.4488Z" fill="url(#paint0_linear_5449_738)"/>
<path d="M20.4354 20.6363C18.7833 18.7141 16.3482 17.4821 13.6407 17.4821C12.6646 17.4821 11.7161 17.6478 10.8332 17.948V13.0754C11.7506 12.8787 12.6853 12.7751 13.6407 12.7751C17.2036 12.7751 20.4457 14.1831 22.8739 16.4779C23.0084 16.616 23.1498 16.7506 23.2843 16.8817C23.5844 17.1681 23.8603 17.4856 24.1156 17.8134C24.2397 17.9722 24.3604 18.1309 24.4846 18.3C24.595 18.4346 24.695 18.5795 24.795 18.7245C24.8468 18.7969 24.8847 18.859 24.9261 18.9212C24.9364 18.9315 24.9468 18.9522 24.9571 18.9626C25.0261 19.0765 25.1089 19.2007 25.1779 19.3249C25.2882 19.4906 25.3779 19.6562 25.471 19.8218C25.4814 19.8322 25.4917 19.8425 25.4917 19.8529C25.5918 20.0392 25.6918 20.2256 25.7849 20.4016C25.7642 20.443 25.7435 20.4948 25.7056 20.5569C25.6952 20.5879 25.6745 20.6086 25.6538 20.6501C25.6228 20.6915 25.5918 20.7536 25.5642 20.8157C25.4745 20.9813 25.3538 21.178 25.2227 21.4162C25.1917 21.4679 25.2089 21.5576 25.2089 21.5576C25.2089 21.5576 25.1227 21.5921 25.1123 21.6025C24.7605 22.234 24.2777 23.0622 23.712 24.0319C20.9976 28.6733 16.4103 36.4482 14.4857 39.5264C14.0891 40.1579 13.1923 40.1579 12.7957 39.5264C10.8711 36.4516 6.29075 28.6837 3.58323 24.0388C3.02103 23.0657 2.53471 22.2271 2.17256 21.599C2.16221 21.5887 2.15186 21.568 2.15186 21.5576C2.12082 21.5059 2.08978 21.4645 2.06219 21.4127C2.03115 21.3506 2.0001 21.2988 1.96217 21.2471C1.87249 21.0814 1.78971 20.9365 1.72073 20.8122C1.68969 20.7501 1.65865 20.688 1.63105 20.6466C1.61036 20.6052 1.60001 20.5845 1.57932 20.5534C1.54828 20.4913 1.51723 20.4396 1.49999 20.3981C1.60001 20.2118 1.68969 20.0254 1.79316 19.8495C1.89318 19.6735 2.00355 19.4871 2.11392 19.3111C2.12427 19.2904 2.13462 19.2594 2.15531 19.2386C2.24499 19.0937 2.34501 18.9384 2.44848 18.7935C2.55885 18.6278 2.67957 18.4622 2.80029 18.2966C2.80029 18.2862 2.81064 18.2759 2.81064 18.2759C2.92101 18.1413 3.02103 18.0067 3.12105 17.8825C3.14175 17.841 3.17279 17.81 3.20038 17.7789C3.3211 17.6236 3.45216 17.4787 3.58323 17.3338C3.71429 17.1785 3.85571 17.0232 3.99712 16.8782L4.4317 16.4434L13.6442 31.9586C13.9615 31.5997 18.2107 24.4115 20.4354 20.6363Z" fill="url(#paint1_linear_5449_738)"/>
<defs>
<linearGradient id="paint0_linear_5449_738" x1="-7.95789e-05" y1="20.0009" x2="27.2892" y2="20.0009" gradientUnits="userSpaceOnUse">
<stop stop-color="#659E89"/>
<stop offset="0.3212" stop-color="#619B8A"/>
<stop offset="1" stop-color="#A1C181"/>
</linearGradient>
<linearGradient id="paint1_linear_5449_738" x1="4.32443" y1="28.4142" x2="27.8463" y2="10.4341" gradientUnits="userSpaceOnUse">
<stop stop-color="#FE7F2D"/>
<stop offset="1" stop-color="#FCCA46"/>
</linearGradient>
</defs>
</svg>
