<svg xmlns="http://www.w3.org/2000/svg" version="1.1" xmlns:xlink="http://www.w3.org/1999/xlink" xmlns:svgjs="http://svgjs.dev/svgjs" width="1000" height="1000"><style>
    #light-icon {
      display: inline;
    }
    #dark-icon {
      display: none;
    }

    @media (prefers-color-scheme: dark) {
      #light-icon {
        display: none;
      }
      #dark-icon {
        display: inline;
      }
    }
  </style><g id="light-icon"><svg xmlns="http://www.w3.org/2000/svg" version="1.1" xmlns:xlink="http://www.w3.org/1999/xlink" xmlns:svgjs="http://svgjs.dev/svgjs" width="1000" height="1000"><g clip-path="url(#SvgjsClipPath1531)"><rect width="1000" height="1000" fill="#619b8a"></rect><g transform="matrix(2.684563758389262,0,0,2.684563758389262,222.63808700062282,100.00001285220151)"><svg xmlns="http://www.w3.org/2000/svg" version="1.1" xmlns:xlink="http://www.w3.org/1999/xlink" xmlns:svgjs="http://svgjs.dev/svgjs" width="207" height="298"><svg width="207" height="298" viewBox="0 0 207 298" fill="none" xmlns="http://www.w3.org/2000/svg">
<path d="M204.371 108.201C193.17 95.281 179.648 84.5578 164.338 76.577C153.808 53.0083 130.358 36.5909 103.17 36.5909C75.9809 36.5909 52.6139 53.0083 42.0837 76.577C26.7745 84.5578 13.2518 95.281 2.05075 108.201C0.256764 49.8922 46.2596 2 103.17 2C160.155 2 206.09 49.8922 204.371 108.201Z" stroke="white" stroke-width="4"></path>
<path d="M189.068 159.366C190.04 157.618 190.937 156.176 191.608 154.958C191.834 154.502 192.053 154.046 192.279 153.74C192.43 153.433 192.581 153.276 192.656 153.052C192.95 152.596 193.101 152.215 193.251 151.909C192.581 150.616 191.834 149.249 191.088 147.881C191.088 147.799 191.013 147.724 190.937 147.649C190.267 146.439 189.596 145.221 188.774 144.003C188.254 143.091 187.651 142.179 187.131 141.342C187.055 141.26 186.98 141.111 186.905 141.036C186.603 140.58 186.309 140.124 185.932 139.594C185.186 138.533 184.44 137.464 183.618 136.478C182.706 135.237 181.787 134.079 180.874 132.913C178.967 130.492 176.94 128.168 174.709 126.053C173.706 125.112 172.651 124.103 171.663 123.094C153.663 106.221 129.618 95.8789 103.175 95.8789C96.0824 95.8789 89.1401 96.6411 82.3411 98.0833V133.892C88.914 131.688 95.9317 130.47 103.175 130.47C123.264 130.47 141.339 139.519 153.588 153.657C137.08 181.403 105.565 234.242 103.175 236.91L34.8382 122.878L31.6272 126.068C30.5794 127.137 29.5392 128.273 28.5668 129.416C27.5945 130.477 26.6221 131.538 25.7251 132.682C25.5065 132.913 25.2804 133.138 25.1296 133.444C24.3834 134.356 23.6372 135.349 22.8155 136.336C22.8155 136.336 22.7402 136.411 22.7402 136.485C21.8432 137.696 20.9462 138.914 20.1246 140.132C19.3783 141.193 18.6321 142.336 17.9612 143.397C17.8105 143.547 17.7351 143.779 17.6597 143.928C16.8381 145.221 16.0165 146.588 15.2703 147.881C14.524 149.174 13.8532 150.541 13.1069 151.909C13.2577 152.215 13.4763 152.596 13.7024 153.052C13.8532 153.284 13.9285 153.433 14.0793 153.74C14.3054 154.046 14.524 154.502 14.7502 154.958C15.2778 155.869 15.8733 156.93 16.5441 158.148C16.8457 158.53 17.0642 158.911 17.2904 159.366C17.509 159.74 17.7351 160.046 17.9612 160.428C17.9612 160.51 18.0366 160.659 18.112 160.734C20.803 165.374 24.3834 171.532 28.5668 178.676C48.6625 212.826 82.6502 269.909 96.9116 292.514C99.8437 297.162 106.515 297.162 109.447 292.514C123.731 269.894 157.771 212.751 177.867 178.601C182.05 171.45 186.516 163.893 189.131 159.253" stroke="white" stroke-width="4"></path>
</svg></svg></g></g><defs><clipPath id="SvgjsClipPath1531"><rect width="1000" height="1000" x="0" y="0" rx="500" ry="500"></rect></clipPath></defs></svg></g><g id="dark-icon"><svg xmlns="http://www.w3.org/2000/svg" version="1.1" xmlns:xlink="http://www.w3.org/1999/xlink" xmlns:svgjs="http://svgjs.dev/svgjs" width="1000" height="1000"><g clip-path="url(#SvgjsClipPath1532)"><rect width="1000" height="1000" fill="#619b8a"></rect><g transform="matrix(2.348993288590604,0,0,2.348993288590604,257.2719342116542,150.000010292002)"><svg xmlns="http://www.w3.org/2000/svg" version="1.1" xmlns:xlink="http://www.w3.org/1999/xlink" xmlns:svgjs="http://svgjs.dev/svgjs" width="207" height="298"><svg width="207" height="298" viewBox="0 0 207 298" fill="none" xmlns="http://www.w3.org/2000/svg">
<path d="M204.371 108.201C193.17 95.281 179.648 84.5578 164.338 76.577C153.808 53.0083 130.358 36.5909 103.17 36.5909C75.9809 36.5909 52.6139 53.0083 42.0837 76.577C26.7745 84.5578 13.2518 95.281 2.05075 108.201C0.256764 49.8922 46.2596 2 103.17 2C160.155 2 206.09 49.8922 204.371 108.201Z" stroke="white" stroke-width="4"></path>
<path d="M189.068 159.366C190.04 157.618 190.937 156.176 191.608 154.958C191.834 154.502 192.053 154.046 192.279 153.74C192.43 153.433 192.581 153.276 192.656 153.052C192.95 152.596 193.101 152.215 193.251 151.909C192.581 150.616 191.834 149.249 191.088 147.881C191.088 147.799 191.013 147.724 190.937 147.649C190.267 146.439 189.596 145.221 188.774 144.003C188.254 143.091 187.651 142.179 187.131 141.342C187.055 141.26 186.98 141.111 186.905 141.036C186.603 140.58 186.309 140.124 185.932 139.594C185.186 138.533 184.44 137.464 183.618 136.478C182.706 135.237 181.787 134.079 180.874 132.913C178.967 130.492 176.94 128.168 174.709 126.053C173.706 125.112 172.651 124.103 171.663 123.094C153.663 106.221 129.618 95.8789 103.175 95.8789C96.0824 95.8789 89.1401 96.6411 82.3411 98.0833V133.892C88.914 131.688 95.9317 130.47 103.175 130.47C123.264 130.47 141.339 139.519 153.588 153.657C137.08 181.403 105.565 234.242 103.175 236.91L34.8382 122.878L31.6272 126.068C30.5794 127.137 29.5392 128.273 28.5668 129.416C27.5945 130.477 26.6221 131.538 25.7251 132.682C25.5065 132.913 25.2804 133.138 25.1296 133.444C24.3834 134.356 23.6372 135.349 22.8155 136.336C22.8155 136.336 22.7402 136.411 22.7402 136.485C21.8432 137.696 20.9462 138.914 20.1246 140.132C19.3783 141.193 18.6321 142.336 17.9612 143.397C17.8105 143.547 17.7351 143.779 17.6597 143.928C16.8381 145.221 16.0165 146.588 15.2703 147.881C14.524 149.174 13.8532 150.541 13.1069 151.909C13.2577 152.215 13.4763 152.596 13.7024 153.052C13.8532 153.284 13.9285 153.433 14.0793 153.74C14.3054 154.046 14.524 154.502 14.7502 154.958C15.2778 155.869 15.8733 156.93 16.5441 158.148C16.8457 158.53 17.0642 158.911 17.2904 159.366C17.509 159.74 17.7351 160.046 17.9612 160.428C17.9612 160.51 18.0366 160.659 18.112 160.734C20.803 165.374 24.3834 171.532 28.5668 178.676C48.6625 212.826 82.6502 269.909 96.9116 292.514C99.8437 297.162 106.515 297.162 109.447 292.514C123.731 269.894 157.771 212.751 177.867 178.601C182.05 171.45 186.516 163.893 189.131 159.253" stroke="white" stroke-width="4"></path>
</svg></svg></g></g><defs><clipPath id="SvgjsClipPath1532"><rect width="1000" height="1000" x="0" y="0" rx="500" ry="500"></rect></clipPath></defs></svg></g></svg>